<svg xmlns="http://www.w3.org/2000/svg" xmlns:xlink="http://www.w3.org/1999/xlink" width="500" zoomAndPan="magnify" viewBox="0 0 375 374.999991" height="500" preserveAspectRatio="xMidYMid meet" version="1.0"><defs><g/><clipPath id="53d0848f58"><path d="M 33.507812 200.605469 L 350.742188 200.605469 L 350.742188 237.679688 L 33.507812 237.679688 Z M 33.507812 200.605469 " clip-rule="nonzero"/></clipPath></defs><g fill="#3b3937" fill-opacity="1"><g transform="translate(176.410085, 273.355588)"><g><path d="M 6.359375 0 L 6.359375 -1.8125 L 10.1875 -1.8125 C 14.425781 -1.8125 17.726562 -2.78125 20.09375 -4.71875 C 22.457031 -6.664062 23.640625 -9.941406 23.640625 -14.546875 L 23.640625 -115.796875 C 23.640625 -120.160156 22.457031 -123.28125 20.09375 -125.15625 C 17.726562 -127.039062 14.425781 -127.984375 10.1875 -127.984375 L 6.359375 -127.984375 L 6.359375 -129.796875 L 62 -129.796875 L 62 -127.984375 L 58.171875 -127.984375 C 53.929688 -127.984375 50.660156 -127.015625 48.359375 -125.078125 C 46.054688 -123.140625 44.90625 -119.925781 44.90625 -115.4375 L 44.90625 -1.8125 L 76.53125 -1.8125 C 83.195312 -1.8125 88.53125 -2.78125 92.53125 -4.71875 C 96.53125 -6.664062 99.53125 -9.847656 101.53125 -14.265625 C 103.53125 -18.691406 104.773438 -24.785156 105.265625 -32.546875 L 105.8125 -39.453125 L 107.625 -39.453125 L 106.34375 0 Z M 6.359375 0 "/></g></g></g><g fill="#3b3937" fill-opacity="1"><g transform="translate(69.684617, 216.929235)"><g><path d="M 6.359375 0 L 6.359375 -1.8125 L 10.1875 -1.8125 C 14.425781 -1.8125 17.726562 -2.78125 20.09375 -4.71875 C 22.457031 -6.664062 23.640625 -9.878906 23.640625 -14.359375 L 23.640625 -115.984375 C 23.640625 -120.222656 22.457031 -123.28125 20.09375 -125.15625 C 17.726562 -127.039062 14.425781 -127.984375 10.1875 -127.984375 L 6.359375 -127.984375 L 6.359375 -129.796875 L 62 -129.796875 L 62 -127.984375 L 58.171875 -127.984375 C 53.804688 -127.984375 50.472656 -127.015625 48.171875 -125.078125 C 45.867188 -123.140625 44.71875 -119.867188 44.71875 -115.265625 L 44.71875 -55.453125 L 89.8125 -105.8125 C 96.476562 -112.957031 99.8125 -118.285156 99.8125 -121.796875 C 99.8125 -124.109375 98.414062 -125.6875 95.625 -126.53125 C 92.832031 -127.375 88.410156 -127.796875 82.359375 -127.796875 L 82.359375 -129.796875 L 123.796875 -129.796875 L 123.796875 -127.796875 C 121.015625 -127.796875 118.347656 -127.34375 115.796875 -126.4375 C 113.253906 -125.53125 110.53125 -123.863281 107.625 -121.4375 C 104.71875 -119.007812 101.203125 -115.492188 97.078125 -110.890625 L 69.453125 -80.171875 L 108.53125 -22.90625 C 112.289062 -17.445312 115.410156 -13.171875 117.890625 -10.078125 C 120.378906 -6.992188 122.5625 -4.84375 124.4375 -3.625 C 126.3125 -2.414062 128.222656 -1.8125 130.171875 -1.8125 L 130.53125 -1.8125 L 130.53125 0 L 126.34375 0 C 120.039062 0 114.859375 -0.269531 110.796875 -0.8125 C 106.742188 -1.363281 103.382812 -2.273438 100.71875 -3.546875 C 98.050781 -4.816406 95.742188 -6.507812 93.796875 -8.625 C 91.859375 -10.75 89.800781 -13.390625 87.625 -16.546875 L 55.453125 -64.53125 L 44.71875 -52.546875 L 44.71875 -14.546875 C 44.71875 -9.941406 45.867188 -6.664062 48.171875 -4.71875 C 50.472656 -2.78125 53.804688 -1.8125 58.171875 -1.8125 L 62 -1.8125 L 62 0 Z M 6.359375 0 "/></g></g></g><g clip-path="url(#53d0848f58)"><path fill="#f4f4f4" d="M 33.507812 200.605469 L 350.800781 200.605469 L 350.800781 237.679688 L 33.507812 237.679688 Z M 33.507812 200.605469 " fill-opacity="1" fill-rule="nonzero"/></g><g fill="#967f71" fill-opacity="1"><g transform="translate(137.570569, 227.124491)"><g><path d="M 42.933594 -22.730469 C 41.101562 -23.292969 38.78125 -22.746094 36.960938 -22.320312 C 34.578125 -21.773438 32.273438 -20.894531 30.066406 -19.859375 C 25.566406 -17.777344 21.394531 -15.03125 17.476562 -12.039062 C 15.769531 -10.738281 14.074219 -9.390625 12.460938 -7.964844 C 13.996094 -11.285156 15.078125 -14.765625 15.628906 -16.882812 C 15.753906 -17.351562 15.125 -17.570312 14.875 -17.195312 C 13.527344 -15.296875 11.269531 -13.824219 9.375 -15.972656 C 9.011719 -16.378906 8.433594 -15.800781 8.792969 -15.394531 C 10.566406 -13.371094 12.695312 -13.917969 14.359375 -15.394531 C 12.414062 -8.839844 7.179688 4.6875 -0.109375 -1.175781 C -0.515625 -1.488281 -1.113281 -0.925781 -0.707031 -0.578125 C 4.46875 3.558594 8.621094 -0.628906 11.503906 -6.035156 C 11.566406 -6.050781 11.613281 -6.082031 11.679688 -6.128906 C 12.773438 -7.164062 13.902344 -8.167969 15.0625 -9.152344 C 16.503906 -6.394531 18.605469 -3.777344 21.050781 -1.914062 C 25.863281 1.753906 31.242188 1.003906 35.832031 -2.617188 C 36.257812 -2.945312 35.660156 -3.527344 35.253906 -3.214844 C 30.457031 0.59375 24.984375 0.675781 20.441406 -3.496094 C 18.542969 -5.234375 16.882812 -7.382812 15.707031 -9.6875 C 19.75 -13.011719 24.15625 -15.957031 28.746094 -18.308594 C 31.113281 -19.53125 33.589844 -20.582031 36.179688 -21.269531 C 37.917969 -21.757812 41.632812 -22.949219 43.292969 -21.695312 C 45.960938 -19.671875 40.097656 -14.125 37.242188 -16.488281 C 36.835938 -16.820312 36.257812 -16.238281 36.664062 -15.910156 C 41.117188 -12.210938 47.839844 -21.222656 42.933594 -22.730469 Z M 42.933594 -22.730469 "/></g></g></g><g fill="#967f71" fill-opacity="1"><g transform="translate(174.79782, 227.124491)"><g><path d="M 13.105469 -3.792969 C 12.949219 -3.964844 12.679688 -3.980469 12.507812 -3.824219 C 12.460938 -3.777344 7.804688 0.40625 4.921875 -1.488281 C 3.777344 -2.242188 3.496094 -4.058594 3.496094 -4.074219 C 3.480469 -4.261719 3.339844 -4.40625 3.152344 -4.4375 C 2.976562 -4.453125 2.789062 -4.359375 2.710938 -4.199219 C 1.976562 -2.570312 0.675781 -0.5 0.3125 -0.738281 C 0.28125 -0.738281 0.21875 -0.800781 0.171875 -0.910156 C -0.015625 -1.425781 0.046875 -1.992188 0.3125 -2.476562 C 0.910156 -3.699219 2.007812 -4.578125 3.324219 -4.90625 C 3.464844 -4.9375 3.574219 -5.046875 3.621094 -5.1875 C 3.667969 -5.328125 3.621094 -5.484375 3.527344 -5.597656 C 3.417969 -5.691406 3.277344 -5.738281 3.136719 -5.707031 C 1.566406 -5.328125 0.265625 -4.261719 -0.4375 -2.820312 C -0.816406 -2.117188 -0.863281 -1.269531 -0.5625 -0.53125 C -0.421875 -0.171875 -0.078125 0.078125 0.3125 0.078125 L 0.328125 0.078125 C 1.097656 0.0625 2.054688 -0.894531 2.710938 -1.929688 C 2.789062 -2.054688 2.929688 -2.117188 3.074219 -2.101562 C 3.214844 -2.101562 3.339844 -2.023438 3.402344 -1.898438 C 3.667969 -1.457031 4.027344 -1.082031 4.46875 -0.816406 C 7.882812 1.457031 12.851562 -3.023438 13.074219 -3.214844 C 13.152344 -3.292969 13.199219 -3.402344 13.199219 -3.496094 C 13.214844 -3.605469 13.167969 -3.714844 13.105469 -3.792969 Z M 13.105469 -3.792969 "/></g></g></g><g fill="#967f71" fill-opacity="1"><g transform="translate(187.457594, 227.124491)"><g><path d="M 12.398438 -4.3125 C 12.226562 -4.46875 11.976562 -4.46875 11.820312 -4.3125 C 11.726562 -4.214844 9.671875 -2.179688 6.898438 -4.214844 C 6.742188 -4.328125 6.535156 -4.328125 6.378906 -4.183594 C 6.128906 -3.964844 5.863281 -3.699219 5.582031 -3.417969 C 5.46875 -3.292969 5.28125 -3.246094 5.125 -3.308594 C 4.96875 -3.371094 4.859375 -3.511719 4.84375 -3.683594 C 4.84375 -4.011719 4.796875 -4.34375 4.6875 -4.65625 C 4.625 -4.828125 4.453125 -4.9375 4.261719 -4.90625 C 4.074219 -4.890625 3.933594 -4.75 3.902344 -4.578125 C 3.902344 -4.546875 3.402344 -1.769531 1.269531 -1.207031 C 1.082031 -1.144531 0.878906 -1.191406 0.738281 -1.332031 C 0.609375 -1.472656 0.25 -2.101562 1.066406 -4.089844 C 1.144531 -4.3125 1.050781 -4.546875 0.832031 -4.625 C 0.628906 -4.71875 0.375 -4.609375 0.296875 -4.40625 C -0.578125 -2.242188 -0.28125 -1.238281 0.109375 -0.785156 C 0.453125 -0.40625 0.988281 -0.265625 1.472656 -0.421875 C 2.570312 -0.722656 3.480469 -1.472656 3.996094 -2.476562 C 3.980469 -2.179688 3.933594 -1.882812 3.886719 -1.566406 C 3.871094 -1.503906 3.839844 -1.425781 3.792969 -1.363281 C 1.960938 0.941406 0.296875 3.761719 0.265625 5.535156 C 0.21875 6.003906 0.390625 6.472656 0.722656 6.835938 C 0.863281 6.976562 1.050781 7.070312 1.253906 7.070312 C 1.425781 7.054688 1.597656 7.007812 1.738281 6.914062 C 2.773438 6.222656 4.089844 2.210938 4.609375 -0.988281 C 4.625 -1.066406 4.65625 -1.128906 4.703125 -1.191406 C 5.1875 -1.785156 5.691406 -2.351562 6.191406 -2.851562 C 6.472656 -3.152344 6.898438 -3.214844 7.257812 -3.023438 C 8.949219 -2.132812 11.019531 -2.414062 12.398438 -3.730469 C 12.476562 -3.808594 12.523438 -3.917969 12.523438 -4.027344 C 12.523438 -4.136719 12.476562 -4.230469 12.398438 -4.3125 Z M 3.449219 0.722656 C 3.105469 2.289062 2.601562 3.792969 1.945312 5.25 C 1.582031 5.972656 1.425781 6.253906 1.269531 6.222656 C 1.128906 6.207031 1.082031 5.863281 1.097656 5.550781 C 1.113281 4.40625 2.054688 2.523438 3.308594 0.691406 C 3.386719 0.578125 3.480469 0.609375 3.449219 0.722656 Z M 3.449219 0.722656 "/></g></g></g><g fill="#967f71" fill-opacity="1"><g transform="translate(199.098947, 227.124491)"><g><path d="M 10.785156 -4.011719 C 10.707031 -4.089844 10.597656 -4.136719 10.488281 -4.136719 C 10.375 -4.136719 10.265625 -4.089844 10.1875 -4.011719 C 10.15625 -3.980469 6.035156 0.078125 3.074219 -0.816406 C 2.023438 -1.128906 1.441406 -2.132812 1.113281 -3.199219 C 1.019531 -3.542969 1.050781 -3.917969 1.207031 -4.246094 C 2.304688 -6.472656 5 -12.304688 3.667969 -13.730469 C 3.355469 -14.125 2.835938 -14.25 2.382812 -14.058594 C 0.800781 -13.371094 -0.25 -8.746094 -0.0625 -5.375 C -0.03125 -4.859375 0.03125 -4.34375 0.125 -3.824219 C 0.125 -3.761719 0.125 -3.714844 0.15625 -3.667969 C 0.5625 -1.691406 1.488281 -0.421875 2.835938 -0.03125 C 3.214844 0.078125 3.589844 0.140625 3.964844 0.140625 C 7.148438 0.140625 10.613281 -3.277344 10.769531 -3.433594 C 10.847656 -3.511719 10.894531 -3.605469 10.894531 -3.714844 C 10.894531 -3.839844 10.863281 -3.933594 10.785156 -4.011719 Z M 0.800781 -5.613281 C 0.3125 -8.230469 1.929688 -12.980469 2.710938 -13.308594 C 2.742188 -13.324219 2.773438 -13.339844 2.804688 -13.339844 C 2.867188 -13.339844 2.945312 -13.308594 3.054688 -13.183594 C 3.683594 -12.523438 1.898438 -6.851562 1.066406 -5.519531 C 0.988281 -5.375 0.832031 -5.453125 0.800781 -5.613281 Z M 0.800781 -5.613281 "/></g></g></g><g fill="#967f71" fill-opacity="1"><g transform="translate(209.424183, 227.124491)"><g><path d="M 13.589844 -4.40625 C 13.511719 -4.484375 13.402344 -4.515625 13.292969 -4.515625 C 13.183594 -4.515625 13.089844 -4.46875 13.011719 -4.390625 C 11.597656 -2.898438 8.433594 -0.722656 6.113281 -0.722656 L 6.082031 -0.722656 C 5.4375 -0.691406 4.828125 -0.941406 4.390625 -1.394531 C 3.824219 -2.007812 4.214844 -3.667969 4.40625 -4.199219 C 4.484375 -4.40625 4.390625 -4.625 4.199219 -4.703125 C 4.027344 -4.796875 3.792969 -4.75 3.683594 -4.578125 C 2.476562 -2.820312 0.753906 -1.113281 0.1875 -1.441406 C 0 -1.566406 0.28125 -2.773438 1.050781 -4.136719 C 1.144531 -4.328125 1.082031 -4.5625 0.894531 -4.671875 C 0.707031 -4.78125 0.453125 -4.734375 0.34375 -4.546875 C -0.1875 -3.621094 -1.300781 -1.378906 -0.234375 -0.738281 C 0.609375 -0.234375 1.753906 -1.050781 2.710938 -2.039062 C 2.804688 -2.148438 2.945312 -2.179688 3.074219 -2.132812 C 3.199219 -2.101562 3.292969 -1.992188 3.324219 -1.851562 C 3.371094 -1.472656 3.527344 -1.128906 3.777344 -0.832031 C 4.375 -0.203125 5.203125 0.140625 6.066406 0.109375 L 6.113281 0.109375 C 8.699219 0.109375 12.054688 -2.179688 13.605469 -3.808594 C 13.683594 -3.902344 13.714844 -3.996094 13.714844 -4.105469 C 13.714844 -4.214844 13.667969 -4.328125 13.589844 -4.40625 Z M 13.589844 -4.40625 "/></g></g></g><g fill="#967f71" fill-opacity="1"><g transform="translate(222.381653, 227.124491)"><g><path d="M 14.921875 -4.3125 C 14.84375 -4.390625 14.734375 -4.4375 14.625 -4.4375 C 14.515625 -4.4375 14.421875 -4.390625 14.34375 -4.3125 C 11.710938 -1.644531 8.230469 -0.515625 5.46875 -1.441406 C 4.796875 -1.691406 4.152344 -2.039062 3.574219 -2.476562 C 3.417969 -2.585938 3.324219 -2.757812 3.324219 -2.945312 C 3.324219 -3.136719 3.417969 -3.324219 3.574219 -3.433594 C 4.121094 -3.824219 4.46875 -4.058594 4.484375 -4.074219 C 4.671875 -4.199219 4.71875 -4.453125 4.59375 -4.640625 C 4.46875 -4.828125 4.214844 -4.875 4.027344 -4.75 C 4.011719 -4.75 3.449219 -4.375 2.648438 -3.777344 C 2.414062 -3.605469 2.101562 -3.621094 1.898438 -3.808594 C 1.050781 -4.5625 0.453125 -5.203125 0.4375 -5.21875 C 0.34375 -5.328125 0.1875 -5.375 0.046875 -5.34375 C -0.109375 -5.3125 -0.21875 -5.203125 -0.265625 -5.0625 C -0.3125 -4.921875 -0.265625 -4.765625 -0.15625 -4.65625 C -0.109375 -4.609375 0.359375 -4.089844 1.082031 -3.449219 C 1.207031 -3.324219 1.269531 -3.167969 1.269531 -2.976562 C 1.253906 -2.804688 1.175781 -2.648438 1.050781 -2.539062 C 0.484375 -2.085938 -0.09375 -1.597656 -0.644531 -1.082031 C -0.816406 -0.925781 -0.816406 -0.660156 -0.660156 -0.5 C -0.515625 -0.328125 -0.25 -0.3125 -0.078125 -0.46875 C 0.5625 -1.082031 1.238281 -1.644531 1.882812 -2.148438 C 2.085938 -2.320312 2.382812 -2.320312 2.585938 -2.164062 C 3.386719 -1.535156 4.261719 -1.019531 5.203125 -0.660156 C 5.941406 -0.421875 6.707031 -0.296875 7.476562 -0.296875 C 10.015625 -0.296875 12.742188 -1.519531 14.921875 -3.730469 C 15.078125 -3.886719 15.078125 -4.152344 14.921875 -4.3125 Z M 14.921875 -4.3125 "/></g></g></g></svg>