<?xml version="1.0" standalone="no"?>
<!DOCTYPE svg PUBLIC "-//W3C//DTD SVG 20010904//EN"
 "http://www.w3.org/TR/2001/REC-SVG-20010904/DTD/svg10.dtd">
<svg version="1.0" xmlns="http://www.w3.org/2000/svg"
 width="300.000000pt" height="300.000000pt" viewBox="0 0 300.000000 300.000000"
 preserveAspectRatio="xMidYMid meet">
<metadata>
Created by potrace 1.10, written by Peter Selinger 2001-2011
</metadata>
<g transform="translate(0.000000,300.000000) scale(0.050000,-0.050000)"
fill="#000000" stroke="none">
<path d="M1208 4596 c-13 -20 -16 -18 85 -26 210 -15 207 -1 207 -971 l0 -819
170 0 170 0 0 306 0 306 85 83 85 83 258 -389 258 -389 206 0 206 0 -212 305
c-310 446 -486 712 -485 729 2 29 590 655 658 701 37 25 97 45 134 45 46 0 67
9 67 29 0 25 -55 30 -342 30 -261 0 -339 -6 -333 -24 5 -15 60 -29 132 -35 80
-6 131 -21 143 -40 26 -40 26 -40 -25 -123 -55 -90 -796 -937 -833 -952 -14
-6 -6 960 9 1029 12 57 72 89 175 94 45 3 85 14 88 25 9 25 -891 28 -906 3z"/>
<path d="M2925 3694 c4 -10 47 -22 96 -26 168 -15 179 -45 179 -499 l0 -389
170 0 170 0 0 389 c0 461 11 491 185 497 52 2 95 14 95 25 0 15 -146 22 -450
22 -270 0 -448 -8 -445 -19z"/>
<path d="M2728 2704 c-56 -20 -148 -69 -204 -109 -98 -71 -102 -72 -83 -23 10
28 19 53 19 56 0 4 -27 5 -60 4 -67 -2 -77 -21 -27 -49 76 -42 -52 -218 -142
-195 -55 14 -73 -21 -21 -41 54 -20 120 10 156 72 45 76 62 76 137 1 76 -76
139 -92 216 -53 34 16 61 23 61 14 0 -9 52 -15 115 -14 l115 3 -7 -67 c-9 -93
40 -74 64 24 16 68 133 118 133 56 0 -37 556 -16 594 22 31 32 32 35 1 35 -18
0 -38 -9 -45 -20 -7 -11 -39 -20 -72 -20 -33 0 -55 8 -49 18 23 38 -73 38
-110 1 -47 -47 -76 -49 -92 -8 -10 25 -17 26 -43 5 -26 -22 -29 -21 -15 2 17
28 16 28 -74 -17 -73 -36 -86 -18 -57 79 27 92 14 135 -30 99 -15 -13 -28 -55
-28 -94 0 -65 -3 -68 -52 -56 -29 7 -64 3 -80 -11 -21 -17 -28 -17 -28 0 0 17
-11 18 -39 3 -56 -31 -121 -26 -121 9 0 37 4 38 -95 -10 -114 -55 -154 -51
-238 26 l-72 66 109 75 c108 74 285 142 317 122 33 -20 -6 -69 -53 -69 -26 0
-48 -9 -48 -20 0 -31 92 -24 119 9 75 90 -16 129 -171 75z"/>
<path d="M3200 1993 c0 -264 -28 -313 -181 -313 -68 0 -99 -8 -99 -26 0 -21
157 -27 798 -29 l799 -3 11 144 c28 363 27 434 -1 434 -17 0 -27 -24 -27 -66
0 -361 -125 -455 -625 -470 l-335 -10 0 273 0 273 -170 0 -170 0 0 -207z"/>
</g>
</svg>
